HIERARCHY
ROOT hip
{
  OFFSET 0 0 0
  CHANNELS 6 Xposition Yposition Zposition Zrotation Yrotation Xrotation
  JOINT abdomen
  {
    OFFSET 0 20.6881 -0.73152
    CHANNELS 3 Zrotation Xrotation Yrotation
    JOINT chest
    {
      OFFSET 0 11.7043 -0.48768
      CHANNELS 3 Zrotation Xrotation Yrotation
      JOINT neck
      {
        OFFSET 0 22.1894 -2.19456
        CHANNELS 3 Zrotation Xrotation Yrotation
        JOINT head
        {
          OFFSET -0.24384 7.07133 1.2192
          CHANNELS 3 Zrotation Xrotation Yrotation
          JOINT leftEye
          {
            OFFSET 4.14528 8.04674 8.04672
            CHANNELS 3 Zrotation Xrotation Yrotation
            End Site
            {
              OFFSET 1 0 0
            }
          }
          JOINT rightEye
          {
            OFFSET -3.6576 8.04674 8.04672
            CHANNELS 3 Zrotation Xrotation Yrotation
            End Site
            {
              OFFSET 1 0 0
            }
          }
        }
      }
      JOINT rCollar
      {
        OFFSET -2.68224 19.2634 -4.8768
        CHANNELS 3 Zrotation Xrotation Yrotation
        JOINT rShldr
        {
          OFFSET -8.77824 -1.95073 1.46304
          CHANNELS 3 Zrotation Xrotation Yrotation
          JOINT rForeArm
          {
            OFFSET -28.1742 -1.7115 0.48768
            CHANNELS 3 Zrotation Xrotation Yrotation
            JOINT rHand
            {
              OFFSET -22.5879 0.773209 7.07136
              CHANNELS 3 Zrotation Xrotation Yrotation
              JOINT rThumb1
              {
                OFFSET -1.2192 -0.487915 3.41376
                CHANNELS 3 Zrotation Xrotation Yrotation
                JOINT rThumb2
                {
                  OFFSET -3.37035 -0.52449 3.41376
                  CHANNELS 3 Zrotation Xrotation Yrotation
                  End Site
                  {
                    OFFSET -1.78271 -1.18214 1.43049
                  }
                }
              }
              JOINT rIndex1
              {
                OFFSET -7.75947 0.938293 5.60832
                CHANNELS 3 Zrotation Xrotation Yrotation
                JOINT rIndex2
                {
                  OFFSET -2.54057 -0.884171 1.56538
                  CHANNELS 3 Zrotation Xrotation Yrotation
                  End Site
                  {
                    OFFSET -1.62519 -0.234802 1.16502
                  }
                }
              }
              JOINT rMid1
              {
                OFFSET -8.24714 1.18213 3.41376
                CHANNELS 3 Zrotation Xrotation Yrotation
                JOINT rMid2
                {
                  OFFSET -3.10165 -0.590103 1.0647
                  CHANNELS 3 Zrotation Xrotation Yrotation
                  End Site
                  {
                    OFFSET -2.48547 -0.328903 0.83742
                  }
                }
              }
              JOINT rRing1
              {
                OFFSET -8.82822 0.546677 1.51678
                CHANNELS 3 Zrotation Xrotation Yrotation
                JOINT rRing2
                {
                  OFFSET -2.60934 -0.819778 -0.0198488
                  CHANNELS 3 Zrotation Xrotation Yrotation
                  End Site
                  {
                    OFFSET -2.33842 -0.294052 0.168128
                  }
                }
              }
              JOINT rPinky1
              {
                OFFSET -8.27202 -0.0477905 -0.4584
                CHANNELS 3 Zrotation Xrotation Yrotation
                JOINT rPinky2
                {
                  OFFSET -1.82734 -0.647385 -0.700984
                  CHANNELS 3 Zrotation Xrotation Yrotation
                  End Site
                  {
                    OFFSET -1.69225 -0.51767 -0.607171
                  }
                }
              }
            }
          }
        }
      }
      JOINT lCollar
      {
        OFFSET 2.68224 19.2634 -4.8768
        CHANNELS 3 Zrotation Xrotation Yrotation
        JOINT lShldr
        {
          OFFSET 8.77824 -1.95073 1.46304
          CHANNELS 3 Zrotation Xrotation Yrotation
          JOINT lForeArm
          {
            OFFSET 28.1742 -1.7115 0.48768
            CHANNELS 3 Zrotation Xrotation Yrotation
            JOINT lHand
            {
              OFFSET 22.5879 0.773209 7.07136
              CHANNELS 3 Zrotation Xrotation Yrotation
              JOINT lThumb1
              {
                OFFSET 1.2192 -0.487915 3.41376
                CHANNELS 3 Zrotation Xrotation Yrotation
                JOINT lThumb2
                {
                  OFFSET 3.37035 -0.52449 3.41376
                  CHANNELS 3 Zrotation Xrotation Yrotation
                  End Site
                  {
                    OFFSET 1.78271 -1.18214 1.43049
                  }
                }
              }
              JOINT lIndex1
              {
                OFFSET 7.75947 0.938293 5.60832
                CHANNELS 3 Zrotation Xrotation Yrotation
                JOINT lIndex2
                {
                  OFFSET 2.54057 -0.884171 1.56538
                  CHANNELS 3 Zrotation Xrotation Yrotation
                  End Site
                  {
                    OFFSET 1.62519 -0.234802 1.16502
                  }
                }
              }
              JOINT lMid1
              {
                OFFSET 8.24714 1.18213 3.41376
                CHANNELS 3 Zrotation Xrotation Yrotation
                JOINT lMid2
                {
                  OFFSET 3.10165 -0.590103 1.0647
                  CHANNELS 3 Zrotation Xrotation Yrotation
                  End Site
                  {
                    OFFSET 2.48547 -0.328903 0.83742
                  }
                }
              }
              JOINT lRing1
              {
                OFFSET 8.82822 0.546677 1.51678
                CHANNELS 3 Zrotation Xrotation Yrotation
                JOINT lRing2
                {
                  OFFSET 2.60934 -0.819778 -0.0198488
                  CHANNELS 3 Zrotation Xrotation Yrotation
                  End Site
                  {
                    OFFSET 2.33842 -0.294052 0.168128
                  }
                }
              }
              JOINT lPinky1
              {
                OFFSET 8.27202 -0.0477905 -0.4584
                CHANNELS 3 Zrotation Xrotation Yrotation
                JOINT lPinky2
                {
                  OFFSET 1.82734 -0.647385 -0.700984
                  CHANNELS 3 Zrotation Xrotation Yrotation
                  End Site
                  {
                    OFFSET 1.69225 -0.51767 -0.607171
                  }
                }
              }
            }
          }
        }
      }
    }
  }
  JOINT rButtock
  {
    OFFSET -8.77824 4.35084 1.2192
    CHANNELS 3 Zrotation Xrotation Yrotation
    JOINT rThigh
    {
      OFFSET 0 -1.70687 -2.19456
      CHANNELS 3 Zrotation Xrotation Yrotation
      JOINT rShin
      {
        OFFSET 0 -36.8199 0.73152
        CHANNELS 3 Zrotation Xrotation Yrotation
        JOINT rFoot
        {
          OFFSET 0.73152 -45.1104 -5.12064
          CHANNELS 3 Zrotation Xrotation Yrotation
          End Site
          {
            OFFSET -1.1221 -3.69964 12.103
          }
        }
      }
    }
  }
  JOINT lButtock
  {
    OFFSET 8.77824 4.35084 1.2192
    CHANNELS 3 Zrotation Xrotation Yrotation
    JOINT lThigh
    {
      OFFSET 0 -1.70687 -2.19456
      CHANNELS 3 Zrotation Xrotation Yrotation
      JOINT lShin
      {
        OFFSET 0 -36.8199 0.73152
        CHANNELS 3 Zrotation Xrotation Yrotation
        JOINT lFoot
        {
          OFFSET -0.73152 -45.1104 -5.12064
          CHANNELS 3 Zrotation Xrotation Yrotation
          End Site
          {
            OFFSET 1.1221 -3.69964 12.103
          }
        }
      }
    }
  }
}
MOTION
Frames:	4
Frame Time:	0.03333
-0.019643090444427764 35.56260251753282 0.06288720587474701 -2.824416160583496 7.680163860321045 4.84722900390625 -2.4387834072113037 14.994803428649902 3.82718563079834 2.7295353412628174 -9.863847732543945 1.1678016185760498 -5.133649826049805 15.590033531188965 -3.524317741394043 9.142265319824219 -26.274871826171875 -5.122005462646484 -0.008889426477253437 -0.013001860119402409 0.006404184736311436 -0.021213456988334656 -0.007261789869517088 -0.030366351827979088 0.03140627592802048 0.02857426181435585 -0.01514416467398405 46.14112854003906 35.85309600830078 18.05992317199707 -28.129283905029297 -31.8946533203125 62.4400634765625 -1.5132049322128296 -10.87675952911377 -1.5405193567276 -0.00011717846064129844 -0.009005875326693058 0.006643865257501602 -0.008268550969660282 -0.028627915307879448 -0.0025533069856464863 -0.02549879066646099 0.001996660139411688 0.03181394934654236 7.748027801513672 5.481086254119873 0.4118266999721527 -0.004953159485012293 -0.01516032312065363 -0.009609960950911045 2.884950876235962 0.9598726034164429 0.11596491932868958 0.015322736464440823 0.013095831498503685 -0.01624286361038685 10.271515846252441 0.7566414475440979 0.020655132830142975 0.009671352803707123 -0.006839929148554802 0.01763521134853363 2.226133346557617 -0.7085837125778198 -0.1893717497587204 -0.0058458964340388775 0.016755754128098488 0.0465615876019001 -52.55194091796875 39.39442443847656 -29.175403594970703 27.4775333404541 -30.682737350463867 -59.15404510498047 1.8780854940414429 -13.876775741577148 1.9410476684570312 -0.006103126797825098 0.01037034671753645 -0.013722947798669338 -0.0008103493601083755 0.0037892332766205072 -0.0011402452364563942 -0.02064663916826248 -0.008437578566372395 -0.00907459482550621 -7.740316390991211 5.48274564743042 -0.428707480430603 0.018614258617162704 -0.03386121615767479 -0.04359443858265877 -2.9143502712249756 0.9475772976875305 -0.1065465435385704 -0.037393324077129364 -0.006238256581127644 -0.015156026929616928 -10.257953643798828 0.7530792355537415 -0.00975276529788971 -0.0010059440974146128 -0.003449903102591634 0.0007397300796583295 -2.2184762954711914 -0.735318660736084 0.20975588262081146 0.006901590619236231 0.04230000078678131 0.02067582495510578 -27.437814712524414 -39.10844421386719 -23.19561767578125 -1.3971368074417114 65.22429656982422 2.3833556175231934 -4.716771602630615 -10.5322265625 -10.259150505065918 -0.007803811691701412 -0.021441496908664703 0.00497831916436553 32.696292877197266 -37.76137161254883 25.844249725341797 1.7829829454421997 65.85641479492188 -2.946352481842041 5.09919548034668 -10.531004905700684 13.747387886047363
-0.06025496836250046 35.47058620903441 0.16337997923634295 -2.664139986038208 8.284005165100098 4.7880425453186035 -2.607285499572754 15.10562801361084 3.871539354324341 2.7628860473632812 -9.906219482421875 1.1935076713562012 -5.181580543518066 15.624382972717285 -3.5522773265838623 9.19261360168457 -26.225400924682617 -5.2016520500183105 -0.05186661705374718 -0.020693473517894745 0.04246686398983002 -0.0394102968275547 0.0049186330288648605 -0.0627572238445282 0.037533942610025406 0.05077320709824562 -0.01967325247824192 45.86445617675781 36.03557586669922 18.367511749267578 -28.120229721069336 -31.805736541748047 62.388004302978516 -1.500839114189148 -10.750432968139648 -1.5644739866256714 -0.013823477551341057 -0.014338280074298382 0.017082087695598602 -0.01100043673068285 -0.04603544995188713 -0.03401046618819237 -0.04239899665117264 -0.0019113791640847921 0.051694925874471664 7.737821102142334 5.481644630432129 0.4196130037307739 -0.006028485018759966 -0.03865697607398033 -0.027164073660969734 2.870981216430664 0.9666478037834167 0.13067549467086792 0.04210725799202919 0.02570354752242565 -0.028326163068413734 10.278063774108887 0.7825997471809387 0.0012520771706476808 0.014143222942948341 -0.051143720746040344 0.029404502362012863 2.224742889404297 -0.6824468374252319 -0.17035704851150513 -0.026111088693141937 0.015319774858653545 0.0824546217918396 -52.66423034667969 39.33523941040039 -29.007333755493164 27.473899841308594 -30.84526824951172 -59.3289794921875 1.8665640354156494 -13.740530014038086 1.8334167003631592 0.003933136351406574 0.01665217988193035 -0.0360221192240715 0.012074828147888184 0.033539287745952606 0.015863843262195587 -0.036610428243875504 0.002680437173694372 -0.005846136249601841 -7.73366117477417 5.48249626159668 -0.44131749868392944 0.04704458266496658 -0.061374202370643616 -0.08650781959295273 -2.9285311698913574 0.9274454116821289 -0.12526321411132812 -0.03548094257712364 -0.01920192874968052 -0.02965516224503517 -10.272143363952637 0.7757524847984314 0.029294103384017944 0.013944976963102818 0.004134865943342447 -0.003719594795256853 -2.225322961807251 -0.7142247557640076 0.21499678492546082 0.020768338814377785 0.08913049101829529 0.021608812734484673 -27.491161346435547 -39.51155090332031 -23.19982147216797 -1.3053038120269775 65.53799438476562 2.2594306468963623 -4.664669990539551 -10.541284561157227 -10.229615211486816 -0.02761182375252247 -0.017329230904579163 0.005074697080999613 32.25987243652344 -37.56440734863281 25.48908233642578 1.7003542184829712 65.6607666015625 -2.8239829540252686 5.143455505371094 -10.646525382995605 13.791449546813965
-0.08454237399912533 28.30270907136164 0.48375816646628333 -150.1774139404297 69.3108139038086 -165.92237854003906 0.22358018159866333 19.618427276611328 -4.998753547668457 7.962728977203369 -11.016701698303223 -1.021695613861084 -10.443757057189941 24.32149314880371 -20.78765869140625 23.953699111938477 -31.452930450439453 -35.86322021484375 0.0877993181347847 -0.17222043871879578 0.07809724658727646 -0.17506816983222961 0.11391834169626236 -0.27605384588241577 0.034277550876140594 0.2522675395011902 -0.2774643301963806 45.45951843261719 37.891048431396484 1.16559898853302 -27.157930374145508 -43.038551330566406 88.9536361694336 0.33759182691574097 3.307777166366577 0.04958879202604294 -0.23244427144527435 -0.12093864381313324 -0.14924263954162598 -0.3332594633102417 0.039709363132715225 -0.12202651053667068 0.004001693334430456 -0.28340697288513184 0.2114732712507248 7.896272659301758 5.444377899169922 0.3475828170776367 -0.3176579475402832 0.026899533346295357 -0.2796160876750946 2.970681667327881 0.8983702659606934 0.16351830959320068 -0.2698797881603241 0.0697060078382492 -0.31086471676826477 10.17621898651123 0.8395641446113586 0.09379509091377258 0.003279763972386718 0.25747668743133545 -0.10600578039884567 2.2707040309906006 -0.7379088401794434 -0.18279966711997986 -0.3978721499443054 0.14124830067157745 0.26896244287490845 -63.604248046875 50.5950927734375 -8.27220344543457 26.5238037109375 -42.559356689453125 -89.06910705566406 1.2707277536392212 -33.01500701904297 4.388515949249268 -0.030611742287874222 0.20796121656894684 0.06462088227272034 0.05146068334579468 0.1703222095966339 -0.11583718657493591 -0.14117345213890076 -0.2523815333843231 0.29271140694618225 -7.600156784057617 5.237555027008057 -0.5485105514526367 0.01460077241063118 -0.03757311776280403 -0.2596731185913086 -3.125363349914551 1.0231677293777466 -0.10736965388059616 -0.042315565049648285 -0.1648886650800705 0.04313815012574196 -9.977215766906738 0.837168276309967 -0.10728833824396133 0.28442811965942383 -0.08644609153270721 -0.0571623370051384 -2.0164406299591064 -0.7744917273521423 0.2742154896259308 -0.13500666618347168 -0.032853513956069946 -0.07458269596099854 -36.844627380371094 -50.50897979736328 -27.046424865722656 -6.9089226722717285 83.05490112304688 8.318852424621582 -1.8301465511322021 -23.903059005737305 -11.121772766113281 -0.1231798380613327 0.033440373837947845 0.024975819513201714 61.93978500366211 -59.8233757019043 50.285888671875 164.16697692871094 86.09730529785156 -165.8800048828125 2.7423453330993652 -21.991098403930664 7.463490009307861
-0.4334925765485513 29.44676234224419 1.2390638569398595 -158.0517120361328 71.94798278808594 -154.72036743164062 -1.4443668127059937 20.00591468811035 -4.075449466705322 8.863231658935547 -11.472396850585938 0.26172250509262085 -9.620976448059082 24.57482147216797 -20.438364028930664 25.469783782958984 -30.569496154785156 -34.730533599853516 -0.03786362335085869 -0.1532173901796341 0.022584177553653717 -0.08217404782772064 0.07289232313632965 -0.2822268605232239 0.3839760422706604 0.2985183298587799 -0.14744789898395538 47.05678176879883 39.85251998901367 0.47641056776046753 -27.022186279296875 -41.934593200683594 89.06332397460938 -0.25008440017700195 2.992746353149414 0.48625096678733826 0.120400071144104 0.052925899624824524 -0.1671755462884903 -0.017922483384609222 -0.17896787822246552 -0.16829347610473633 0.02204957790672779 -0.14777854084968567 0.1375216841697693 7.600257396697998 5.159539699554443 0.41090700030326843 -0.07338438183069229 0.09978429973125458 0.15975095331668854 2.904698610305786 1.232658863067627 0.1023484617471695 -0.06000731140375137 -0.09775421768426895 -0.03613312542438507 10.259654998779297 1.0169504880905151 -0.169437974691391 0.5371129512786865 0.12336422502994537 -0.03732088953256607 2.41292667388916 -0.7938105463981628 -0.33455297350883484 -0.09516402333974838 -0.009407415986061096 0.25870490074157715 -67.38754272460938 49.24496841430664 -4.922787666320801 27.380693435668945 -42.60364532470703 -88.07841491699219 1.325027346611023 -30.8459415435791 4.5876898765563965 -0.2003285139799118 -0.15908357501029968 0.11742795258760452 0.053298573940992355 0.03138342872262001 0.0001439661136828363 -0.11661186814308167 -0.15337860584259033 -0.25939780473709106 -7.856781482696533 5.21824312210083 -0.4625810980796814 -0.13118354976177216 0.02456781268119812 -0.24657416343688965 -2.769639492034912 0.7377118468284607 0.14282572269439697 0.01894092746078968 0.11391390115022659 -0.0022100729402154684 -10.22436809539795 0.7386886477470398 0.2535085082054138 0.07582619041204453 -0.2445303052663803 0.31612852215766907 -2.0643811225891113 -0.5991440415382385 0.2338959127664566 0.15218178927898407 0.10242442786693573 0.33137089014053345 -39.30474853515625 -51.83602523803711 -27.725969314575195 -5.925710678100586 82.39041900634766 7.9057769775390625 -1.5874403715133667 -22.068195343017578 -9.251763343811035 -0.35166501998901367 -0.11199982464313507 -0.26427584886550903 62.72842025756836 -58.88770294189453 50.91351318359375 126.95626831054688 88.48223876953125 -128.64686584472656 4.696417331695557 -23.301481246948242 10.476692199707031
